<mxfile host="app.diagrams.net" modified="2024-03-19T11:34:25.099Z" agent="Mozilla/5.0 (Macintosh; Intel Mac OS X 10_15_7) AppleWebKit/537.36 (KHTML, like Gecko) Chrome/123.0.0.0 Safari/537.36" etag="wEjXVjKRmItpa5YOeXqZ" version="23.1.8" type="device">
  <diagram name="Page-1" id="8xlel8L-IMlivcHvC5Fa">
    <mxGraphModel dx="1214" dy="449" grid="1" gridSize="10" guides="1" tooltips="1" connect="1" arrows="1" fold="1" page="1" pageScale="1" pageWidth="827" pageHeight="1169" math="0" shadow="0">
      <root>
        <mxCell id="0" />
        <mxCell id="1" parent="0" />
        <mxCell id="pOv4b10t_8qHC7Z5nBGR-1" value="Root Node" style="rounded=1;whiteSpace=wrap;html=1;fillColor=#f8cecc;strokeColor=#b85450;" vertex="1" parent="1">
          <mxGeometry x="340" y="60" width="80" height="30" as="geometry" />
        </mxCell>
        <mxCell id="pOv4b10t_8qHC7Z5nBGR-2" value="Decision Node" style="rounded=1;whiteSpace=wrap;html=1;fillColor=#dae8fc;strokeColor=#6c8ebf;" vertex="1" parent="1">
          <mxGeometry x="240" y="130" width="90" height="30" as="geometry" />
        </mxCell>
        <mxCell id="pOv4b10t_8qHC7Z5nBGR-3" value="Decision Node" style="rounded=1;whiteSpace=wrap;html=1;fillColor=#dae8fc;strokeColor=#6c8ebf;" vertex="1" parent="1">
          <mxGeometry x="440" y="130" width="90" height="30" as="geometry" />
        </mxCell>
        <mxCell id="pOv4b10t_8qHC7Z5nBGR-4" value="Leaf Node" style="ellipse;whiteSpace=wrap;html=1;fillColor=#d5e8d4;strokeColor=#82b366;" vertex="1" parent="1">
          <mxGeometry x="200" y="200" width="80" height="40" as="geometry" />
        </mxCell>
        <mxCell id="pOv4b10t_8qHC7Z5nBGR-5" value="Leaf Node" style="ellipse;whiteSpace=wrap;html=1;fillColor=#d5e8d4;strokeColor=#82b366;" vertex="1" parent="1">
          <mxGeometry x="300" y="200" width="80" height="40" as="geometry" />
        </mxCell>
        <mxCell id="pOv4b10t_8qHC7Z5nBGR-6" value="Leaf Node" style="ellipse;whiteSpace=wrap;html=1;fillColor=#d5e8d4;strokeColor=#82b366;" vertex="1" parent="1">
          <mxGeometry x="400" y="200" width="80" height="40" as="geometry" />
        </mxCell>
        <mxCell id="pOv4b10t_8qHC7Z5nBGR-7" value="Leaf Node" style="ellipse;whiteSpace=wrap;html=1;fillColor=#d5e8d4;strokeColor=#82b366;" vertex="1" parent="1">
          <mxGeometry x="500" y="200" width="80" height="40" as="geometry" />
        </mxCell>
        <mxCell id="pOv4b10t_8qHC7Z5nBGR-9" value="" style="endArrow=classic;startArrow=classic;html=1;rounded=0;exitX=0.5;exitY=0;exitDx=0;exitDy=0;entryX=0.5;entryY=0;entryDx=0;entryDy=0;" edge="1" parent="1" source="pOv4b10t_8qHC7Z5nBGR-2" target="pOv4b10t_8qHC7Z5nBGR-3">
          <mxGeometry width="50" height="50" relative="1" as="geometry">
            <mxPoint x="390" y="260" as="sourcePoint" />
            <mxPoint x="440" y="210" as="targetPoint" />
            <Array as="points">
              <mxPoint x="285" y="110" />
              <mxPoint x="380" y="110" />
              <mxPoint x="485" y="110" />
            </Array>
          </mxGeometry>
        </mxCell>
        <mxCell id="pOv4b10t_8qHC7Z5nBGR-10" value="" style="endArrow=none;html=1;rounded=0;exitX=0.5;exitY=1;exitDx=0;exitDy=0;" edge="1" parent="1" source="pOv4b10t_8qHC7Z5nBGR-1">
          <mxGeometry width="50" height="50" relative="1" as="geometry">
            <mxPoint x="390" y="260" as="sourcePoint" />
            <mxPoint x="380" y="110" as="targetPoint" />
          </mxGeometry>
        </mxCell>
        <mxCell id="pOv4b10t_8qHC7Z5nBGR-11" value="" style="endArrow=classic;startArrow=classic;html=1;rounded=0;exitX=0.5;exitY=0;exitDx=0;exitDy=0;entryX=0.5;entryY=0;entryDx=0;entryDy=0;" edge="1" parent="1" source="pOv4b10t_8qHC7Z5nBGR-4" target="pOv4b10t_8qHC7Z5nBGR-5">
          <mxGeometry width="50" height="50" relative="1" as="geometry">
            <mxPoint x="185" y="200" as="sourcePoint" />
            <mxPoint x="385" y="200" as="targetPoint" />
            <Array as="points">
              <mxPoint x="240" y="180" />
              <mxPoint x="280" y="180" />
              <mxPoint x="340" y="180" />
            </Array>
          </mxGeometry>
        </mxCell>
        <mxCell id="pOv4b10t_8qHC7Z5nBGR-12" value="" style="endArrow=none;html=1;rounded=0;exitX=0.5;exitY=1;exitDx=0;exitDy=0;" edge="1" parent="1">
          <mxGeometry width="50" height="50" relative="1" as="geometry">
            <mxPoint x="284.5" y="160" as="sourcePoint" />
            <mxPoint x="284.5" y="180" as="targetPoint" />
          </mxGeometry>
        </mxCell>
        <mxCell id="pOv4b10t_8qHC7Z5nBGR-13" value="" style="endArrow=classic;startArrow=classic;html=1;rounded=0;exitX=0.5;exitY=0;exitDx=0;exitDy=0;entryX=0.5;entryY=0;entryDx=0;entryDy=0;" edge="1" parent="1" source="pOv4b10t_8qHC7Z5nBGR-6" target="pOv4b10t_8qHC7Z5nBGR-7">
          <mxGeometry width="50" height="50" relative="1" as="geometry">
            <mxPoint x="385" y="200" as="sourcePoint" />
            <mxPoint x="585" y="200" as="targetPoint" />
            <Array as="points">
              <mxPoint x="440" y="180" />
              <mxPoint x="480" y="180" />
              <mxPoint x="540" y="180" />
            </Array>
          </mxGeometry>
        </mxCell>
        <mxCell id="pOv4b10t_8qHC7Z5nBGR-14" value="" style="endArrow=none;html=1;rounded=0;exitX=0.5;exitY=1;exitDx=0;exitDy=0;" edge="1" parent="1">
          <mxGeometry width="50" height="50" relative="1" as="geometry">
            <mxPoint x="484.5" y="160" as="sourcePoint" />
            <mxPoint x="484.5" y="180" as="targetPoint" />
          </mxGeometry>
        </mxCell>
        <mxCell id="pOv4b10t_8qHC7Z5nBGR-15" value="Splitting" style="text;html=1;align=center;verticalAlign=middle;whiteSpace=wrap;rounded=0;" vertex="1" parent="1">
          <mxGeometry x="350" y="102" width="60" height="30" as="geometry" />
        </mxCell>
        <mxCell id="pOv4b10t_8qHC7Z5nBGR-18" value="Splitting" style="text;html=1;align=center;verticalAlign=middle;whiteSpace=wrap;rounded=0;" vertex="1" parent="1">
          <mxGeometry x="255" y="172" width="60" height="30" as="geometry" />
        </mxCell>
        <mxCell id="pOv4b10t_8qHC7Z5nBGR-19" value="Splitting" style="text;html=1;align=center;verticalAlign=middle;whiteSpace=wrap;rounded=0;" vertex="1" parent="1">
          <mxGeometry x="455" y="172" width="60" height="30" as="geometry" />
        </mxCell>
      </root>
    </mxGraphModel>
  </diagram>
</mxfile>
